<!--?xml version="1.0" standalone="no"?-->
              <svg id="sw-js-blob-svg" viewBox="0 0 100 100" xmlns="http://www.w3.org/2000/svg" version="1.1">
                    <defs> 
                        <linearGradient id="sw-gradient" x1="0" x2="1" y1="1" y2="0">
                            <stop id="stop1" stop-color="rgba(255, 81.917, 0, 1)" offset="0%"></stop>
                            <stop id="stop2" stop-color="rgba(0, 0, 0, 1)" offset="100%"></stop>
                        </linearGradient>
                    </defs>
                <path fill="url(#sw-gradient)" d="M11.2,-12.8C19.2,-6.6,33.7,-7.6,37.4,-4C41.1,-0.5,34,7.5,26.5,10.4C19,13.2,11.1,10.9,4.7,13.5C-1.6,16,-6.4,23.3,-13.4,25.6C-20.4,27.9,-29.7,25.2,-30.1,19.7C-30.6,14.2,-22.1,5.9,-18,-0.7C-13.9,-7.2,-14,-12,-11.7,-19.2C-9.4,-26.4,-4.7,-36,-1.6,-34.1C1.6,-32.2,3.2,-19,11.2,-12.8Z" width="100%" height="100%" transform="translate(50 50)" stroke-width="0" style="transition: all 0.3s ease 0s;" stroke="url(#sw-gradient)"></path>
              </svg>